# xmcd
#
# Track frame offsets:
#	225
#	15847
#	36043
#	53898
#	68684
#	81680
#	101061
#	111907
#	133394
#	156104
#
# Disc length: 2441 seconds
#
# Revision: 1
# Processed by: cddbd v1.5.2PL0 Copyright (c) Steve Scherf et al.
# Submitted via: audiograbber 1.83.01
#
DISCID=8509860a
DTITLE=Harding - Across The Road
DYEAR=2007
DGENRE=Country Rock
TTITLE0=Western Wind
TTITLE1=Dusted
TTITLE2=Song For Firehose
TTITLE3=Treefort
TTITLE4=The Gazebo
TTITLE5=Across The Road
TTITLE6=So Close
TTITLE7=Coriander
TTITLE8=Tecumseh Highway
TTITLE9=Brand New Shotgun
EXTD=
EXTT0=
EXTT1=
EXTT2=
EXTT3=
EXTT4=
EXTT5=
EXTT6=
EXTT7=
EXTT8=
EXTT9=
PLAYORDER=
